<?xml version="1.0" standalone="no"?>
<!DOCTYPE svg PUBLIC "-//W3C//DTD SVG 20010904//EN"
 "http://www.w3.org/TR/2001/REC-SVG-20010904/DTD/svg10.dtd">
<svg version="1.0" xmlns="http://www.w3.org/2000/svg"
 width="2000.000000pt" height="1500.000000pt" viewBox="0 0 2000.000000 1500.000000"
 preserveAspectRatio="xMidYMid meet">

<g transform="translate(0.000000,1500.000000) scale(0.100000,-0.100000)"
fill="#000000" stroke="none">
<path d="M0 7500 l0 -7500 10000 0 10000 0 0 7500 0 7500 -10000 0 -10000 0 0
-7500z m9986 4529 c26 -11 78 -44 114 -74 78 -64 112 -79 163 -71 l37 6 0
-104 c0 -58 -5 -117 -11 -133 -16 -43 -59 -82 -104 -94 -23 -7 -148 -12 -290
-14 -477 -4 -769 -80 -1222 -315 -117 -60 -549 -311 -782 -454 -159 -97 -769
-678 -951 -906 -265 -331 -431 -684 -505 -1072 -7 -40 -41 -325 -75 -633 l-61
-560 -54 -115 c-29 -63 -56 -128 -59 -145 -3 -16 15 -180 41 -362 25 -183 43
-336 40 -340 -4 -4 -13 -1 -19 5 -34 34 -92 -5 -92 -61 0 -42 31 -105 61 -124
22 -15 26 -14 54 6 17 13 32 21 34 19 11 -12 53 -108 115 -263 91 -228 158
-365 212 -436 131 -174 434 -479 1003 -1011 204 -190 396 -373 428 -406 l59
-60 86 19 c87 19 129 39 139 65 8 21 23 6 23 -24 0 -36 -31 -81 -74 -107 l-36
-22 73 -41 c263 -150 453 -208 762 -232 284 -23 575 -68 878 -137 l157 -36 88
21 c79 20 301 54 444 68 54 5 63 10 130 72 70 64 73 68 81 125 l9 59 24 -23
24 -22 0 42 c0 23 -7 58 -15 79 l-16 37 32 -30 c17 -17 51 -59 74 -93 36 -54
44 -61 49 -44 9 27 52 72 70 72 8 0 19 -12 24 -27 9 -25 10 -22 17 33 9 76 21
97 38 70 7 -10 19 -28 28 -39 16 -21 17 -20 40 28 l24 50 83 3 84 3 -7 -30
c-8 -39 9 -71 39 -71 14 0 50 21 87 52 58 49 63 51 73 33 27 -47 64 -75 101
-75 54 0 88 18 307 162 361 238 886 619 1318 957 85 66 158 121 162 121 3 0 4
-28 2 -62 l-4 -63 26 80 c15 44 27 81 28 82 1 2 16 -2 32 -9 55 -20 78 -5 146
94 35 51 94 125 131 165 66 69 174 160 181 152 7 -8 -132 -338 -211 -500 -169
-349 -318 -577 -580 -892 -82 -97 -91 -114 -97 -160 -9 -67 -40 -130 -74 -153
-19 -13 -55 -20 -127 -24 -83 -5 -106 -10 -133 -28 -36 -26 -40 -48 -16 -93
l15 -31 -44 26 c-25 15 -59 26 -80 26 -38 0 -193 -45 -214 -62 -16 -13 -6 -32
55 -102 48 -54 82 -131 82 -182 0 -27 -15 -32 -27 -10 -4 8 -34 42 -66 75
l-59 61 -61 -44 c-34 -24 -135 -120 -224 -214 -178 -187 -169 -171 -163 -296
l2 -58 -79 7 c-157 14 -193 -15 -193 -155 0 -57 -4 -80 -12 -80 -26 0 -77 40
-118 93 -67 85 -70 86 -218 55 -114 -23 -215 -54 -250 -76 -9 -6 -10 -16 -1
-40 17 -50 -1 -66 -71 -59 -41 5 -78 19 -136 51 -165 94 -317 127 -426 93 -43
-14 -53 -13 -140 9 -286 73 -637 80 -1110 24 -90 -11 -169 -20 -175 -20 -9 0
-13 20 -13 65 0 66 -7 78 -30 50 -19 -23 -67 -18 -113 13 -79 54 -232 140
-467 262 -213 111 -240 122 -283 121 -110 -4 -288 40 -377 92 -19 11 -67 44
-106 74 -109 82 -155 95 -374 103 -192 7 -215 12 -317 64 -60 30 -158 118
-207 185 -79 107 -136 250 -176 441 -12 57 -30 109 -45 133 -28 41 -79 77
-110 77 -17 0 -26 17 -54 103 -54 168 -189 500 -361 887 -278 627 -280 632
-280 838 l0 112 39 -6 c32 -5 43 -2 61 16 20 20 22 29 16 79 -28 242 -161 627
-327 938 l-59 112 20 113 c11 62 36 219 55 348 59 389 98 557 174 750 80 205
181 342 414 562 367 347 419 408 463 540 52 161 61 172 346 453 371 368 546
523 614 545 32 11 152 10 304 -2 3 0 28 0 56 1 50 1 51 2 62 39 33 110 155
243 281 305 l85 42 126 0 c152 0 147 -2 319 159 62 58 117 106 121 106 5 0 15
3 23 6 8 3 22 -2 31 -12 14 -14 16 -29 10 -102 l-7 -86 39 30 c101 79 300 178
534 267 80 30 181 68 225 85 44 17 83 31 87 31 3 1 28 -8 54 -20z m1749 -279
c202 -23 498 -121 757 -251 236 -118 427 -257 613 -444 l130 -131 461 -740
461 -739 37 -300 c52 -427 56 -467 63 -692 4 -143 9 -203 18 -203 18 0 40 21
74 72 29 43 66 78 82 78 4 0 -11 -55 -33 -122 -50 -158 -83 -319 -108 -538
-12 -96 -24 -202 -28 -235 l-8 -60 -12 66 c-21 113 -13 305 23 566 l6 43 -30
-30 c-60 -61 -111 -24 -111 80 0 44 -4 55 -27 73 -128 102 -239 243 -337 428
-53 100 -54 102 -41 140 25 69 35 181 24 250 -19 119 -62 185 -175 265 -69 49
-125 107 -149 154 -30 58 -96 235 -117 315 -14 53 -21 113 -22 177 -1 54 -2
98 -3 98 -1 0 -38 -18 -83 -40 -90 -43 -151 -57 -190 -42 -14 5 -176 117 -360
249 -676 483 -906 637 -1195 800 -84 47 -96 51 -180 58 -222 16 -407 86 -533
201 -97 87 -124 171 -83 259 35 78 86 102 232 111 82 5 114 3 149 -9 24 -9 45
-15 45 -14 7 19 54 78 69 88 38 25 414 37 581 19z m-1545 -1890 c0 -35 37
-126 70 -175 51 -74 129 -144 262 -237 240 -167 384 -322 474 -511 121 -257
93 -524 -81 -754 -58 -78 -69 -86 -45 -31 63 144 35 407 -60 573 -88 152 -213
253 -407 329 -60 24 -130 57 -158 74 l-50 31 -5 -967 c-5 -892 -6 -970 -23
-1011 -59 -148 -193 -267 -368 -326 -118 -40 -307 -47 -428 -17 -152 39 -266
109 -353 217 -73 90 -92 148 -93 275 0 100 2 109 34 175 49 101 153 201 263
253 116 56 201 75 333 75 123 1 210 -17 314 -64 35 -16 65 -29 67 -29 2 0 4
482 4 1070 l0 1070 125 0 c119 0 125 -1 125 -20z m-164 -3285 c20 -30 11 -62
-21 -77 -52 -23 -99 46 -59 86 23 24 61 20 80 -9z m1874 -550 l0 -565 -45 0
-45 0 0 565 0 565 45 0 45 0 0 -565z m-4141 221 c27 -14 52 -30 55 -34 3 -5
31 4 63 19 180 88 351 53 426 -86 21 -38 22 -54 25 -362 l3 -323 -45 0 -46 0
0 303 c0 344 -4 363 -76 408 -52 32 -154 32 -237 -1 -56 -21 -59 -24 -51 -49
4 -14 9 -169 11 -343 l4 -318 -45 0 -46 0 0 293 c0 318 -5 355 -51 398 -59 55
-162 59 -286 12 l-43 -16 0 -343 0 -344 -45 0 -45 0 0 405 0 405 46 0 c44 0
46 -1 40 -25 -8 -30 -5 -30 37 -8 92 48 220 52 306 9z m2956 5 c60 -27 90 -53
118 -106 21 -38 22 -54 25 -362 l3 -323 -45 0 -46 0 0 293 c0 167 -4 308 -10
329 -31 109 -198 147 -361 81 l-39 -15 0 -344 0 -344 -45 0 -45 0 0 405 0 405
46 0 c44 0 46 -1 40 -25 -7 -29 -4 -31 30 -8 71 46 240 54 329 14z m716 14
c24 -9 60 -31 79 -50 l35 -34 -3 44 -4 45 46 0 47 0 -3 -502 c-3 -566 0 -540
-80 -598 -40 -29 -84 -47 -93 -38 -3 2 -7 18 -11 34 -5 25 -1 32 24 47 54 31
72 87 72 219 l0 115 -40 -38 c-75 -72 -208 -87 -320 -38 -96 43 -136 107 -152
242 -11 100 -4 321 12 378 13 45 61 112 96 136 77 50 211 67 295 38z m1057 0
c62 -19 115 -62 145 -119 19 -36 22 -60 25 -192 l4 -151 -89 -6 c-48 -4 -149
-9 -223 -12 -197 -9 -184 -2 -176 -86 3 -39 13 -83 21 -98 42 -82 185 -98 333
-39 l60 25 16 -35 c20 -41 19 -41 -63 -72 -189 -72 -364 -39 -431 80 -25 45
-25 48 -25 285 0 237 0 241 25 289 62 120 225 176 378 131z m-4018 -289 c0
-305 4 -340 44 -385 73 -83 267 -81 334 3 35 45 42 113 42 401 l0 275 45 0 45
0 0 -405 0 -405 -45 0 c-45 0 -45 0 -45 36 l0 35 -33 -25 c-58 -45 -106 -59
-192 -59 -98 0 -168 27 -219 84 -60 66 -66 105 -66 441 l0 298 45 0 45 0 0
-294z m1250 252 c-1 -39 -19 -70 -219 -358 l-219 -315 234 -3 234 -2 0 -45 0
-45 -295 0 -295 0 1 43 c0 38 20 70 218 357 l218 315 -209 3 -208 2 0 45 0 45
270 0 270 0 0 -42z m310 -363 l0 -405 -45 0 -45 0 0 405 0 405 45 0 45 0 0
-405z"/>
<path d="M6286 6203 c20 -40 37 -90 41 -121 7 -66 34 -106 92 -140 l44 -26
-25 45 c-14 24 -45 89 -68 144 -47 108 -83 165 -105 165 -11 0 -5 -19 21 -67z"/>
<path d="M6136 6245 c-9 -9 -16 -22 -16 -28 0 -7 25 -43 55 -81 30 -38 55 -65
54 -60 -2 30 -56 178 -65 181 -7 2 -19 -3 -28 -12z"/>
<path d="M11251 6186 c-53 -18 -88 -49 -112 -101 -16 -34 -19 -67 -19 -228 0
-207 6 -235 58 -279 44 -37 94 -51 168 -46 50 3 72 10 106 34 76 53 83 74 86
279 4 189 -2 232 -39 279 -47 60 -164 89 -248 62z"/>
<path d="M12272 6179 c-23 -12 -51 -34 -63 -50 -24 -34 -41 -133 -37 -210 3
-47 6 -54 23 -52 11 1 100 5 199 9 l178 6 -4 107 c-4 126 -17 152 -93 187 -65
31 -144 32 -203 3z"/>
</g>
</svg>
